<svg xmlns="http://www.w3.org/2000/svg" width="491.7365" height="76.2064" viewBox="0 0 491.7365 76.2064" class="injected-svg" data-src="/svg/spotify-advertising.svg" xmlns:xlink="http://www.w3.org/1999/xlink">
  <title>Spotify Advertising Logo</title>
  <g class="spotify-advertising-logo" fill="#fff">
    <path d="M281.1136,44.8572H264.1624l-4.3506,10.95h-3.4L270.763,20.3553h3.8l14.3506,35.4521H285.514Zm-15.8008-2.9h14.65l-7.3506-18.4511Z"/>
    <path d="M310.2786,50.6385a9.7055,9.7055,0,0,1-9.1846,5.8838c-7.3681,0-12.0976-6.0489-12.0976-13.8584,0-7.6983,4.8389-13.8028,12.0976-13.8028,5.6094,0,8.1944,3.4092,9.129,5.6641V18.6024h3.3V50.8035a36.9793,36.9793,0,0,0,.2753,5.0039H310.553a28.6915,28.6915,0,0,1-.2744-4.124Zm-8.9092,2.914c5.4444,0,8.9092-4.7294,8.9092-10.8886,0-6.2139-3.4648-10.833-8.8545-10.833-5.499,0-9.1289,4.5088-9.1289,10.833C292.2952,48.8231,295.8147,53.5525,301.3694,53.5525Z"/>
    <path d="M330.431,55.8074h-3.4649L316.5726,29.576h3.7392l8.3594,22.4922L337.14,29.576h3.6846Z"/>
    <path d="M365.37,48.3836a11.6848,11.6848,0,0,1-11.4941,8.1387c-6.9287,0-12.7578-5.1143-12.7578-13.9131,0-8.249,5.6093-13.7481,12.1533-13.7481,7.7539,0,12.208,5.4991,12.2627,13.253a8.9507,8.9507,0,0,1-.0547,1.21H344.473v.22c.0546,6.05,4.2343,10.0087,9.4033,10.0087a8.48,8.48,0,0,0,8.5791-6.2138Zm-3.3-7.81c-.11-4.8935-3.2451-8.7431-8.7441-8.7431-4.8946,0-8.4141,3.9043-8.7442,8.7431Z"/>
    <path d="M383.07,32.9852a9.16,9.16,0,0,0-2.3095-.2745c-4.4541,0-7.7539,2.8594-7.7539,8.8536V55.8074h-3.3V29.576h3.2442v4.8945a8.3572,8.3572,0,0,1,8.084-5.2246,6.2194,6.2194,0,0,1,2.0351.2754Z"/>
    <path d="M394.3087,29.576h6.8194v2.97h-6.8194V48.3836c0,3.1895,1.4854,4.73,4.4551,4.73a6.4633,6.4633,0,0,0,2.3643-.44v2.915a8.6647,8.6647,0,0,1-3.2442.4951c-4.2343,0-6.874-2.5849-6.874-7.3691V32.5457h-5.5547v-2.97h1.98c2.585,0,3.6846-1.1553,3.6846-3.85V21.2723h3.1894Z"/>
    <path d="M405.7208,17.5373a2.75,2.75,0,1,1-2.749,2.75A2.69,2.69,0,0,1,405.7208,17.5373Zm-1.6494,38.27V29.576h3.3V55.8074Z"/>
    <path d="M414.0919,47.8885c.4952,3.1894,2.9141,5.7744,7.2041,5.7744,3.2442,0,5.8291-1.9248,5.8291-4.6748,0-2.42-1.65-3.7393-4.455-4.3994l-4.2344-.9893c-3.8486-.88-6.4336-3.1894-6.4336-6.9844,0-4.2343,4.0693-7.6992,8.8535-7.6992,6.1045,0,8.6885,3.63,9.4043,6.7647l-2.915,1.1c-.4952-2.53-2.31-5.0049-6.4893-5.0049-2.97,0-5.6094,1.87-5.6094,4.62,0,2.2549,1.43,3.5742,4.125,4.1787l4.1787.9356c4.3448.9892,6.8194,3.4638,6.8194,7.2588,0,3.9043-3.3,7.7539-9.1289,7.7539-6.4336,0-9.6787-4.1241-10.1729-7.5889Z"/>
    <path d="M436.2121,17.5373a2.75,2.75,0,1,1-2.7491,2.75A2.69,2.69,0,0,1,436.2121,17.5373Zm-1.65,38.27V29.576h3.3V55.8074Z"/>
    <path d="M446.86,55.8074h-3.3V29.576h3.1895v4.18a9.2856,9.2856,0,0,1,8.5244-4.84c6.1592,0,9.2929,4.3994,9.2929,9.7891V55.8074h-3.2988V39.2547c0-4.124-2.0351-7.3691-7.0947-7.3691-4.5088,0-7.3135,3.7949-7.3135,8.249Z"/>
    <path d="M471.004,56.5223a8.3118,8.3118,0,0,0,8.4141,7.5342c6.9287,0,9.0186-4.6749,9.0186-10.1192V49.0984c-1.1553,2.6944-4.0694,5.334-8.8536,5.334-6.875,0-11.7138-5.4443-11.7138-12.7578,0-7.1494,4.7295-12.7041,11.7138-12.7041,4.8936,0,7.5889,2.42,8.9082,5.1152v-4.51h3.2452V53.8826c0,6.1045-2.6953,13.0879-12.3741,13.0879-6.3789,0-10.833-4.1787-11.4931-9.6787Zm17.542-14.8477c0-5.665-3.4091-9.8437-8.5781-9.8437-5.2246,0-8.7988,4.124-8.7988,9.8437s3.5195,9.8985,8.7988,9.8985C485.1369,51.5731,488.546,47.3934,488.546,41.6746Z"/>
    <path d="M38.1032,0A38.1032,38.1032,0,1,0,76.2064,38.1026,38.1031,38.1031,0,0,0,38.1032,0ZM55.5777,54.9583a2.3733,2.3733,0,0,1-3.2654.79c-8.9477-5.4688-20.21-6.7038-33.473-3.6741a2.3742,2.3742,0,1,1-1.0574-4.6292c14.5143-3.3181,26.9647-1.89,37.008,4.247A2.3752,2.3752,0,0,1,55.5777,54.9583ZM60.24,44.5827a2.9723,2.9723,0,0,1-4.0863.9783c-10.24-6.2943-25.8539-8.1176-37.9683-4.44a2.97,2.97,0,1,1-1.7265-5.684c13.839-4.1994,31.0427-2.1655,42.8037,5.0621A2.9708,2.9708,0,0,1,60.24,44.5827Zm.4022-10.8035c-12.2823-7.2941-32.5416-7.9647-44.2666-4.406a3.5637,3.5637,0,1,1-2.069-6.82C27.7662,18.467,50.1405,19.2562,64.28,27.65a3.5639,3.5639,0,0,1-3.6378,6.13Z"/>
    <path d="M103.6655,35.1958c-6.5786-1.569-7.75-2.67-7.75-4.9834,0-2.1861,2.0581-3.6567,5.1185-3.6567,2.9667,0,5.9079,1.1171,8.9923,3.4167a.4308.4308,0,0,0,.3252.0793.4248.4248,0,0,0,.2844-.1758l3.2125-4.5282a.4316.4316,0,0,0-.0821-.586,19.4349,19.4349,0,0,0-12.6349-4.3771c-7.1036,0-12.0651,4.2627-12.0651,10.3621,0,6.5408,4.28,8.8565,11.6765,10.6443,6.2954,1.45,7.358,2.6647,7.358,4.8367,0,2.4066-2.1484,3.9026-5.606,3.9026-3.84,0-6.9724-1.2937-10.4764-4.3279a.452.452,0,0,0-.3162-.103.4281.4281,0,0,0-.2956.1521l-3.6018,4.2863a.4277.4277,0,0,0,.0427.5976,21.4726,21.4726,0,0,0,14.5016,5.5622c7.6547,0,12.6008-4.1826,12.6008-10.6559C114.95,40.1708,111.681,37.1451,103.6655,35.1958Z"/>
    <path d="M132.2674,28.7075a10.3221,10.3221,0,0,0-8.2834,3.9843V29.6779a.4316.4316,0,0,0-.43-.4316h-5.8907a.4314.4314,0,0,0-.4305.4316v33.489a.4313.4313,0,0,0,.4305.4317h5.8907a.4316.4316,0,0,0,.43-.4317V52.5961a10.5812,10.5812,0,0,0,8.2834,3.7494c6.165,0,12.4056-4.7457,12.4056-13.8174C144.673,33.4543,138.4324,28.7075,132.2674,28.7075Zm5.5565,13.8206c0,4.6194-2.8457,7.8431-6.92,7.8431-4.0281,0-7.0668-3.37-7.0668-7.8431s3.0387-7.8431,7.0668-7.8431C134.9126,34.685,137.8239,37.9827,137.8239,42.5281Z"/>
    <path d="M160.67,28.7075a13.8482,13.8482,0,1,0,14.1089,13.8206A13.8911,13.8911,0,0,0,160.67,28.7075Zm0,21.7121c-4.2231,0-7.4067-3.3931-7.4067-7.8915,0-4.5175,3.0735-7.796,7.3093-7.796,4.25,0,7.4553,3.393,7.4553,7.8945C168.0279,47.1434,164.9334,50.42,160.67,50.42Z"/>
    <path d="M191.7331,29.2463h-6.4823V22.6186a.4309.4309,0,0,0-.43-.4315h-5.89a.4323.4323,0,0,0-.432.4315v6.6277h-2.8326a.4306.4306,0,0,0-.429.4316v5.0627a.4306.4306,0,0,0,.429.4316h2.8326v13.1c0,5.2939,2.6347,7.9781,7.8315,7.9781a10.7453,10.7453,0,0,0,5.5183-1.3732.4294.4294,0,0,0,.2177-.3736v-4.821a.4319.4319,0,0,0-.6242-.3867,7.4247,7.4247,0,0,1-3.4579.8344c-1.89,0-2.7333-.858-2.7333-2.7812V35.1722h6.4823a.4308.4308,0,0,0,.43-.4316V29.6779A.4308.4308,0,0,0,191.7331,29.2463Z"/>
    <path d="M214.318,29.272v-.814c0-2.3948.918-3.4626,2.9776-3.4626a9.9458,9.9458,0,0,1,3.3193.6125.4306.4306,0,0,0,.5665-.41V20.2335a.4309.4309,0,0,0-.3046-.4134,16.1689,16.1689,0,0,0-4.8963-.7037c-5.4411,0-8.3168,3.0642-8.3168,8.8575v1.2467h-2.83a.4331.4331,0,0,0-.4324.4315v5.0885a.4332.4332,0,0,0,.4324.4316h2.83V55.3785a.4305.4305,0,0,0,.4294.4316h5.8907a.4322.4322,0,0,0,.4316-.4316V35.1722h5.5l8.4254,20.201c-.9566,2.1226-1.897,2.5448-3.1811,2.5448a6.7933,6.7933,0,0,1-3.2481-.9213.4419.4419,0,0,0-.3431-.0322.4345.4345,0,0,0-.2548.2326l-1.9967,4.38a.428.428,0,0,0,.1855.5572,12.4041,12.4041,0,0,0,6.2912,1.6107c4.35,0,6.754-2.0262,8.8735-7.4771L244.887,29.86a.43.43,0,0,0-.4-.588h-6.1324a.4325.4325,0,0,0-.408.2892l-6.2823,17.9441-6.881-17.9559a.43.43,0,0,0-.4023-.2774Z"/>
    <rect x="194.9025" y="29.2463" width="6.754" height="26.5638" rx="0.4316"/>
    <path d="M198.31,17.5441a4.2247,4.2247,0,1,0,4.2245,4.223A4.2252,4.2252,0,0,0,198.31,17.5441Z"/>
    <path d="M245.1132,55.8a4.1567,4.1567,0,1,1,4.1672-4.17A4.1293,4.1293,0,0,1,245.1132,55.8Zm.0218-7.9011a3.7433,3.7433,0,1,0,3.71,3.7315A3.7071,3.7071,0,0,0,245.135,47.8989Zm.9191,4.1578,1.1727,1.6419h-.9888l-1.0554-1.5058h-.9075v1.5058h-.8277V49.3471h1.9405c1.0109,0,1.6759.5172,1.6759,1.388A1.2978,1.2978,0,0,1,246.0541,52.0567Zm-.7-1.9633h-1.0794V51.47h1.0794c.5388,0,.86-.2636.86-.6886C246.2148,50.3334,245.8933,50.0934,245.3545,50.0934Z"/>
  </g>
</svg>